<?xml version="1.0" encoding="UTF-8"?>
<svg version="1.1" xmlns="http://www.w3.org/2000/svg" width="2040" height="1176">
<path d="M0 0 C9.61094082 7.72879824 14.47100731 17.79911462 17.8125 29.375 C18.07969849 30.26106934 18.07969849 30.26106934 18.35229492 31.16503906 C21.45761821 46.07718039 19.75475505 65.21863539 14.8125 79.375 C14.42635561 80.6809304 14.04500369 81.98828555 13.66796875 83.296875 C7.70751962 102.94133681 -4.51909528 120.73322285 -16 137.5625 C-16.38091797 138.13291016 -16.76183594 138.70332031 -17.15429688 139.29101562 C-18.11304717 140.68968287 -19.14407521 142.03831122 -20.1875 143.375 C-20.8475 143.375 -21.5075 143.375 -22.1875 143.375 C-22.40019531 144.05949219 -22.61289062 144.74398437 -22.83203125 145.44921875 C-24.60612973 149.27861287 -27.08783761 152.05050771 -29.875 155.1875 C-30.41809814 155.80915039 -30.96119629 156.43080078 -31.52075195 157.07128906 C-32.59432901 158.29887531 -33.67066107 159.52405874 -34.75 160.74658203 C-36.47048973 162.6955743 -38.17189985 164.66081139 -39.875 166.625 C-43.20416238 170.41587103 -46.58614315 174.15880081 -49.97265625 177.8984375 C-52.634204 180.87448913 -55.21668071 183.91345257 -57.77734375 186.9765625 C-59.1875 188.375 -59.1875 188.375 -61.1875 188.375 C-61.41115234 188.92317383 -61.63480469 189.47134766 -61.86523438 190.03613281 C-63.58463029 193.07745719 -65.88373999 195.35733621 -68.34375 197.796875 C-68.84668579 198.30172424 -69.34962158 198.80657349 -69.86779785 199.32672119 C-70.92779986 200.38807997 -71.99031488 201.44693419 -73.05517578 202.50341797 C-74.68890046 204.12639124 -76.31163294 205.75981068 -77.93359375 207.39453125 C-78.96550476 208.42512146 -79.99803559 209.45509152 -81.03125 210.484375 C-81.76100037 211.22019806 -81.76100037 211.22019806 -82.50549316 211.97088623 C-85.95755651 215.375 -85.95755651 215.375 -88.1875 215.375 C-88.1875 216.035 -88.1875 216.695 -88.1875 217.375 C-89.76171875 218.92578125 -89.76171875 218.92578125 -91.875 220.6875 C-94.38552294 222.81144684 -96.79573421 224.93001344 -99.0625 227.3125 C-101.1875 229.375 -101.1875 229.375 -103.1875 229.375 C-103.1875 230.035 -103.1875 230.695 -103.1875 231.375 C-104.73990341 232.76825954 -106.35779985 234.08880128 -108 235.375 C-112.02697294 238.59245342 -115.89807012 241.87538222 -119.6875 245.375 C-124.19052003 249.51829232 -128.83616654 253.42091776 -133.6015625 257.2578125 C-136.70127847 259.79564642 -139.67650234 262.45327449 -142.62890625 265.16015625 C-144.1875 266.375 -144.1875 266.375 -146.1875 266.375 C-153.84305075 347.23550669 -153.84305075 347.23550669 -130.58203125 421.84375 C-127.51245467 425.21426546 -124.61732321 426.11442216 -120.1875 426.375 C-112.59075555 423.42932358 -108.09709266 418.31718428 -103.5 411.875 C-103.01466797 411.21113281 -102.52933594 410.54726563 -102.02929688 409.86328125 C-99.79958304 406.78166296 -97.82861491 403.81685481 -96.1875 400.375 C-95.5275 400.375 -94.8675 400.375 -94.1875 400.375 C-94.09984375 399.85164063 -94.0121875 399.32828125 -93.921875 398.7890625 C-92.91811378 395.48946444 -91.17414514 392.7044146 -89.4375 389.75 C-88.17135437 387.51307214 -86.91761852 385.26951071 -85.66601562 383.02441406 C-84.61881965 381.14789974 -83.56473768 379.27522054 -82.50585938 377.40527344 C-74.77520796 363.60175639 -69.77693472 352.71626764 -70.19628906 336.83886719 C-70.11908578 315.196213 -63.43543876 290.29882022 -48.39453125 274.38671875 C-46.43688777 272.60231805 -44.66841224 271.40675716 -42.375 270.125 C-37.76369889 267.17039059 -37.50482516 261.89696725 -36.2578125 256.8984375 C-34.40215517 250.78966776 -31.33942572 246.34898761 -25.8984375 242.94140625 C-16.19982208 238.49235886 -7.08894983 239.85105832 2.74609375 243.18359375 C18.62011353 249.35120653 30.3414384 260.9861525 37.50390625 276.33984375 C47.03820878 298.45373349 46.2293201 321.77015737 45.8125 345.375 C54.82902575 347.96745496 63.39403332 349.44845633 72.75 349.9375 C73.52923828 349.98068359 74.30847656 350.02386719 75.11132812 350.06835938 C77.01157117 350.17328077 78.91201669 350.2745245 80.8125 350.375 C80.77769531 349.69179688 80.74289062 349.00859375 80.70703125 348.3046875 C80.04482332 323.6453256 85.5397798 296.27049758 100.8125 276.375 C108.48973343 268.53638329 108.48973343 268.53638329 112.8125 266.375 C113.34486743 264.33035807 113.7889357 262.26237884 114.1875 260.1875 C115.86009336 252.54374836 118.01959482 247.75265001 124.8125 243.375 C134.75986838 238.77631581 143.51365358 239.7673313 153.703125 243.17578125 C160.97396993 245.97998903 168.07427809 250.04330062 173.8125 255.375 C173.8125 256.035 173.8125 256.695 173.8125 257.375 C174.4725 257.375 175.1325 257.375 175.8125 257.375 C186.27927094 269.16515578 191.91095452 283.14094051 194.8125 298.375 C195.03808594 299.52355469 195.26367188 300.67210937 195.49609375 301.85546875 C197.75881699 316.16524261 196.98938007 330.93070176 196.8125 345.375 C206.39262345 348.385355 214.64721437 349.51787174 224.6875 349.4375 C226.29238281 349.43073242 226.29238281 349.43073242 227.9296875 349.42382812 C230.55734986 349.41209749 233.18489538 349.39568228 235.8125 349.375 C235.67972656 348.55 235.54695313 347.725 235.41015625 346.875 C235.23355469 345.72 235.05695312 344.565 234.875 343.375 C234.70097656 342.26125 234.52695313 341.1475 234.34765625 340 C232.53030647 325.78829132 232.60921697 311.42515216 232.625 297.125 C232.62590637 295.60149429 232.62590637 295.60149429 232.62683105 294.04721069 C232.65309663 277.73132051 233.16398578 261.61751358 234.8125 245.375 C234.93608887 244.07256348 235.05967773 242.77012695 235.18701172 241.42822266 C242.6421045 163.22922949 261.42490022 63.31259051 323.7421875 6.84375 C341.31758507 -7.28812183 360.48730707 -13.27367617 382.8125 -11.625 C393.26376112 -10.2884908 403.10330101 -5.43113266 411.8125 0.375 C411.8125 1.035 411.8125 1.695 411.8125 2.375 C412.4003125 2.61992187 412.988125 2.86484375 413.59375 3.1171875 C421.57831834 7.64365054 426.07175187 18.30341439 428.5 26.75 C435.92055132 59.50701938 424.19621224 92.92322806 406.9375 120.625 C405.26534673 123.23348009 403.54949084 125.80932376 401.8125 128.375 C401.35117676 129.06013672 400.88985352 129.74527344 400.41455078 130.45117188 C393.10798832 141.22915564 385.17827092 151.40359898 376.8125 161.375 C376.0704834 162.26566162 376.0704834 162.26566162 375.31347656 163.17431641 C363.69799471 177.09039303 351.16580067 190.1054335 338.375 202.9375 C337.45154785 203.865625 336.5280957 204.79375 335.57666016 205.75 C331.00989076 210.30602405 326.39955257 214.73822579 321.48413086 218.91772461 C319.77429774 220.36077636 319.77429774 220.36077636 318.21704102 222.06469727 C316.8125 223.375 316.8125 223.375 314.8125 223.375 C314.8125 224.035 314.8125 224.695 314.8125 225.375 C313.26009659 226.76825954 311.64220015 228.08880128 310 229.375 C305.9491036 232.61052367 302.06010672 235.91587279 298.25 239.4375 C294.14609367 243.21100709 289.9303622 246.7346042 285.546875 250.17578125 C281.63802278 253.31961525 277.85338569 256.60327664 274.07299805 259.89990234 C273.52168213 260.37766113 272.97036621 260.85541992 272.40234375 261.34765625 C271.87177872 261.8146846 271.34121368 262.28171295 270.79457092 262.76289368 C268.8125 264.375 268.8125 264.375 266.52655029 265.82698059 C261.74922696 268.93494963 261.74922696 268.93494963 259.00831604 273.7467804 C258.73819036 276.55083277 258.74667442 279.22439381 258.86328125 282.0390625 C258.87127243 283.06695892 258.87926361 284.09485535 258.88749695 285.15390015 C258.92445082 288.43815456 259.02467689 291.71713766 259.125 295 C259.15303812 297.15099381 259.17716052 299.30204241 259.19726562 301.453125 C259.67033507 336.42331053 265.68579967 368.99273565 275.8125 402.375 C275.86148438 401.68277344 275.91046875 400.99054688 275.9609375 400.27734375 C278.17838093 371.25942018 283.59967375 342.04293994 297.8125 316.375 C298.24175781 315.52035156 298.67101563 314.66570312 299.11328125 313.78515625 C302.44197221 307.27647873 307.02046616 301.86116788 311.8125 296.375 C312.62654297 295.4159375 312.62654297 295.4159375 313.45703125 294.4375 C327.18383534 279.42489401 348.29344631 273.03199381 368.09765625 272.125 C380.39627128 271.81556484 391.88954367 272.81640979 401.1875 281.625 C406.01490966 289.7944625 406.54685477 297.06087253 404.8125 306.375 C400.89772346 320.18995524 392.65297208 332.06679067 382.8125 342.375 C382.1525 342.375 381.4925 342.375 380.8125 342.375 C380.8125 343.035 380.8125 343.695 380.8125 344.375 C368.99772133 355.73638988 346.8664886 370.375 329.8125 370.375 C345.90518649 393.38431392 367.24558594 417.51832839 393.8125 428.375 C396.52162857 428.57972482 396.52162857 428.57972482 398.8125 428.375 C398.8125 427.715 398.8125 427.055 398.8125 426.375 C399.93545574 425.21695189 401.06536977 424.06524956 402.21875 422.9375 C415.13267929 410.27678501 424.09599539 394.08645426 432.8125 378.375 C433.50928447 377.17176412 434.20858543 375.96998265 434.91015625 374.76953125 C441.08616428 364.1312406 446.3787267 353.12114633 451.59033203 341.98388672 C452.62363265 339.77816351 453.66579285 337.57716294 454.71484375 335.37890625 C456.10700943 332.44061774 457.47724151 329.4941751 458.82470703 326.53515625 C459.57498067 324.89441943 460.33246062 323.25697563 461.09326172 321.62109375 C462.51775402 318.54700664 463.91687413 315.46228624 465.3125 312.375 C466.00001343 310.90450195 466.00001343 310.90450195 466.70141602 309.40429688 C470.06561606 301.86060808 470.02338765 297.47088648 467.140625 289.73828125 C466.45597144 288.05139588 465.76293077 286.36789564 465.0625 284.6875 C464.69979004 283.79901367 464.33708008 282.91052734 463.96337891 281.99511719 C462.06650215 277.35980945 460.13047549 272.7411542 458.1875 268.125 C428.41256196 196.86364828 428.41256196 196.86364828 440.5546875 164.9375 C444.43224271 157.03788443 449.46165592 151.77700241 457.78515625 148.62890625 C466.74939453 146.0447819 477.04341807 146.66706358 485.4921875 150.6328125 C494.24028788 155.59093467 499.02429328 161.72561791 501.8125 171.375 C504.34801959 187.50557529 502.55420925 203.39984214 499.8125 219.375 C499.60753906 220.64601563 499.40257812 221.91703125 499.19140625 223.2265625 C496.88108172 236.17011982 493.21715957 249.47675457 488.03125 261.56640625 C484.98788407 271.0769248 490.08814627 279.34505658 493.9375 287.9375 C494.54030215 289.30329818 495.14234952 290.66942973 495.74365234 292.03588867 C499.07722191 299.58884177 502.50255848 307.09471929 506.03125 314.55859375 C514.9640099 333.58225626 522.78874452 353.02771048 530.35839844 372.62304688 C531.32867216 375.13451608 532.31196811 377.64028737 533.30566406 380.14257812 C533.76424805 381.30724609 534.22283203 382.47191406 534.6953125 383.671875 C535.30850342 385.21633301 535.30850342 385.21633301 535.93408203 386.79199219 C536.8125 389.375 536.8125 389.375 536.8125 392.375 C550.32204938 384.14100206 563.45125941 375.34733517 576.58666992 366.53515625 C579.73097439 364.4295931 582.88259376 362.33535842 586.03515625 360.2421875 C591.24071859 356.7732398 596.38447859 353.22506324 601.5 349.625 C602.35811279 349.02284668 603.21622559 348.42069336 604.1003418 347.80029297 C608.77455686 344.51827781 613.44159284 341.22618726 618.10473633 337.9284668 C634.12487972 326.60111224 650.13172675 315.28671321 666.68164062 304.7421875 C668.92778426 303.3010321 671.16038592 301.8406391 673.390625 300.375 C730.65626929 262.76710232 791.50456355 229.83693342 857.8125 211.375 C859.1732666 210.99118164 859.1732666 210.99118164 860.56152344 210.59960938 C879.04640889 205.45949691 897.87521338 202.30417495 916.8125 199.375 C917.75399902 199.22514648 918.69549805 199.07529297 919.66552734 198.92089844 C941.95946969 195.48683461 967.84477317 195.05733151 989.8125 200.375 C990.51890625 200.53597168 991.2253125 200.69694336 991.953125 200.86279297 C1007.52283082 204.50669219 1021.97138268 211.52591925 1033.8125 222.375 C1034.56660156 223.03757812 1035.32070312 223.70015625 1036.09765625 224.3828125 C1050.57588256 237.84284451 1059.54336298 257.35783991 1061.09814453 276.97998047 C1061.21212964 280.59641706 1061.22976261 284.19457898 1061.1875 287.8125 C1061.1711853 289.72252808 1061.1711853 289.72252808 1061.15454102 291.67114258 C1060.74393874 315.8718857 1052.27949421 339.30011746 1035.8125 357.375 C1035.1525 357.375 1034.4925 357.375 1033.8125 357.375 C1033.49345703 358.20451172 1033.49345703 358.20451172 1033.16796875 359.05078125 C1031.34655008 362.17396312 1028.86526669 364.27192848 1026.125 366.5625 C1025.26430908 367.28215942 1025.26430908 367.28215942 1024.38623047 368.01635742 C999.93073049 387.93464055 967.01443601 396.27711099 935.8125 394.375 C934.8125 393.375 934.8125 393.375 934.75 389.8125 C934.770625 388.678125 934.79125 387.54375 934.8125 386.375 C935.63935303 386.36098145 935.63935303 386.36098145 936.48291016 386.34667969 C968.16992019 385.68040984 1000.33794586 379.5272965 1023.4375 355.8125 C1024.613125 354.6059375 1024.613125 354.6059375 1025.8125 353.375 C1026.4725 353.375 1027.1325 353.375 1027.8125 353.375 C1028.05613281 352.82585937 1028.29976562 352.27671875 1028.55078125 351.7109375 C1030.0857329 348.86913846 1031.98846353 346.52740383 1034 344 C1049.63534499 323.59454975 1054.65715788 298.12348323 1051.49609375 272.84472656 C1050.66608674 268.21723603 1049.35159956 263.82016254 1047.8125 259.375 C1047.461875 258.32570313 1047.11125 257.27640625 1046.75 256.1953125 C1039.4186561 236.59414998 1024.03787463 222.44380359 1005.4375 213.5625 C948.17928593 187.50257742 871.3621186 212.55502063 815.8427124 233.10406494 C807.3993413 236.28957702 799.08365699 239.76892162 790.8125 243.375 C789.79833008 243.81666504 788.78416016 244.25833008 787.73925781 244.71337891 C763.54962034 255.3414535 740.49126187 267.8530697 717.8125 281.375 C716.08747461 282.39492885 714.36222292 283.4144751 712.63671875 284.43359375 C686.39144477 299.99206159 661.24652077 317.08759893 636.29785156 334.62792969 C624.72862801 342.76048015 613.14194013 350.8652518 601.4765625 358.859375 C599.13254747 360.46620896 596.79357518 362.07981934 594.4609375 363.703125 C577.00337879 375.85120722 559.34317322 387.91356021 540.8125 398.375 C541.33211763 403.46725273 542.24608368 408.31757777 543.375 413.3125 C548.07591386 435.47115287 543.31153649 458.99313985 531.8125 478.375 C523.74544805 490.3856108 515.04361145 500.20676941 501.4375 505.75 C490.10782746 507.70339182 480.09069319 506.33138213 470.5625 499.625 C461.38482417 492.06139395 455.76196591 483.59537592 454.3671875 471.51953125 C454.13772731 463.89380432 454.75153517 457.87737822 458.8125 451.375 C459.5240625 450.18003906 459.5240625 450.18003906 460.25 448.9609375 C472.47038596 429.98408815 495.18330056 418.1992328 513.8125 406.375 C512.68005677 399.73396369 511.02906471 393.69832557 508.4609375 387.4765625 C508.12959305 386.65536926 507.7982486 385.83417603 507.4568634 384.98809814 C506.37678905 382.32132591 505.28295453 379.66048751 504.1875 377 C503.42873624 375.14081064 502.67002931 373.2815981 501.91137695 371.42236328 C489.24262547 340.50061038 489.24262547 340.50061038 474.8125 310.375 C472.56892443 312.61857557 471.88525104 314.32441009 470.7109375 317.2578125 C470.30762207 318.25167969 469.90430664 319.24554687 469.48876953 320.26953125 C469.05935059 321.33558594 468.62993164 322.40164063 468.1875 323.5 C464.45795013 332.59554854 460.48512139 341.41923434 455.95654297 350.13818359 C454.6200243 352.75132573 453.32656139 355.38380529 452.03515625 358.01953125 C441.28677115 379.91075369 429.695771 402.67200224 413.8125 421.375 C413.10480469 422.21546875 412.39710937 423.0559375 411.66796875 423.921875 C399.51015186 437.92304062 399.51015186 437.92304062 390.80859375 438.61328125 C382.80359056 438.78023521 376.91703131 438.05968399 369.8125 434.375 C368.96558594 433.9625 368.11867188 433.55 367.24609375 433.125 C342.69325271 420.54479615 313.28019198 396.14191284 301.8125 370.375 C301.4375 366.75 301.4375 366.75 301.8125 364.375 C305.89286548 362.53098868 309.92613071 361.7644034 314.3125 361.0625 C330.42580153 358.22331415 345.33526846 351.2338972 356.8125 339.375 C357.1425 338.715 357.4725 338.055 357.8125 337.375 C358.4725 337.375 359.1325 337.375 359.8125 337.375 C360.20695312 336.52421875 360.20695312 336.52421875 360.609375 335.65625 C361.90271364 333.20394556 363.41373354 331.10306278 365.0625 328.875 C373.59144329 316.82052274 378.17755243 305.26807204 376.8125 290.375 C375.85442509 286.71854955 374.3804561 284.33242452 371.046875 282.296875 C361.20643096 278.03526538 350.36914336 280.83785951 340.8125 284.5625 C334.35949129 287.36851798 328.08498774 290.98646659 323.16015625 296.0859375 C321.8125 297.375 321.8125 297.375 319.8125 297.375 C319.54566406 297.96667969 319.27882813 298.55835938 319.00390625 299.16796875 C317.79196311 301.41304375 316.52168102 302.86555853 314.75 304.6875 C306.62014177 313.80176695 301.03407394 325.00350682 296.8125 336.375 C296.40515625 337.39207031 295.9978125 338.40914062 295.578125 339.45703125 C288.69123872 357.37568907 285.84694389 376.37691008 283.8125 395.375 C283.71461182 396.20507568 283.61672363 397.03515137 283.51586914 397.89038086 C282.59850917 406.4370776 282.70083116 414.98021891 282.75 423.5625 C282.75502803 425.10221208 282.75958862 426.64192575 282.76367188 428.18164062 C282.77456736 431.91279428 282.79175918 435.64388654 282.8125 439.375 C273.5163817 438.25805349 268.99909399 433.3964245 263.23046875 426.26171875 C256.6318772 417.68140528 251.9299877 408.34998259 247.8125 398.375 C247.53422363 397.70130371 247.25594727 397.02760742 246.96923828 396.33349609 C241.95107385 383.87136778 236.8125 368.87804677 236.8125 355.375 C235.63300781 355.70113281 234.45351562 356.02726562 233.23828125 356.36328125 C226.53819205 357.84971185 219.82979176 357.6273506 213 357.5625 C211.69095703 357.56185547 210.38191406 357.56121094 209.03320312 357.56054688 C198.52625183 357.51197853 198.52625183 357.51197853 194.8125 356.375 C194.7700415 356.98666016 194.72758301 357.59832031 194.68383789 358.22851562 C194.17566545 364.37123361 193.06594304 369.99215059 191.25 375.875 C190.98896484 376.73013184 190.72792969 377.58526367 190.45898438 378.46630859 C183.83315467 399.42879663 172.78023588 423.95593664 152.8515625 435.34375 C143.57484549 440.03542297 133.72058774 441.07735019 123.53125 438.56640625 C115.88779986 435.71981206 110.45228774 431.16242616 104.8125 425.375 C104.18730469 424.78203125 103.56210937 424.1890625 102.91796875 423.578125 C96.78768666 417.32329993 93.37242408 409.26077745 89.8125 401.375 C89.19181641 400.01761719 89.19181641 400.01761719 88.55859375 398.6328125 C83.37047436 385.89648804 81.50069261 371.04209944 80.8125 357.375 C79.91494995 357.42829468 79.91494995 357.42829468 78.99926758 357.48266602 C49.4297595 359.18362975 49.4297595 359.18362975 43.8125 356.375 C43.70292969 357.02984375 43.59335937 357.6846875 43.48046875 358.359375 C38.5844795 386.54116679 28.3545008 415.39940602 4.8125 433.375 C-5.56010403 439.61942685 -16.7083658 441.39149943 -28.5546875 438.57421875 C-43.80844854 432.80948568 -52.96787497 419.52537064 -59.62109375 405.3125 C-64.59309834 393.74128931 -67.35002557 381.61445965 -70.1875 369.375 C-70.62578125 370.28636719 -71.0640625 371.19773437 -71.515625 372.13671875 C-99.5013779 429.61770421 -99.5013779 429.61770421 -123.6875 438.6875 C-132.87143627 440.49148748 -139.72279942 438.98188363 -147.54296875 433.8203125 C-166.29977007 418.77613106 -169.94837252 390.43901984 -172.81787109 368.20727539 C-173.085847 366.15391447 -173.38304286 364.10429874 -173.69799805 362.05761719 C-174.23911012 357.98672712 -174.535784 353.95456677 -174.74609375 349.85546875 C-174.78834579 349.03837936 -174.83059784 348.22128998 -174.87413025 347.37944031 C-175.35331851 337.15144053 -175.2959501 326.9239687 -175.25 316.6875 C-175.2449664 314.70247511 -175.24040684 312.71744896 -175.23632812 310.73242188 C-175.22548953 305.94658249 -175.20833154 301.16080589 -175.1875 296.375 C-175.5175 296.705 -175.8475 297.035 -176.1875 297.375 C-177.99427722 298.77823307 -179.8082739 300.17217154 -181.625 301.5625 C-185.57388778 304.58596268 -189.51113899 307.62259135 -193.421875 310.6953125 C-203.02257306 318.23134431 -212.75832782 325.53017107 -222.70483398 332.60375977 C-224.54736817 333.91830255 -226.38460984 335.24027026 -228.21899414 336.56616211 C-236.95159205 342.86794662 -245.83663411 348.92147728 -254.80053711 354.88891602 C-257.121832 356.43538944 -259.43893768 357.98800031 -261.75585938 359.54101562 C-271.07706399 365.76823785 -280.52131739 371.69947683 -290.1875 377.375 C-291.70487873 378.27919041 -293.22189089 379.18399675 -294.73828125 380.08984375 C-318.63813547 394.24861276 -343.23102698 407.17967575 -368.1875 419.375 C-369.3326709 419.93815918 -369.3326709 419.93815918 -370.50097656 420.51269531 C-428.44262653 448.92353196 -492.63154322 472.61981398 -557.1875 479.375 C-558.78464844 479.57029297 -558.78464844 479.57029297 -560.4140625 479.76953125 C-592.47474614 483.23430254 -627.86857553 479.75374283 -653.875 459.0625 C-655.31506067 457.83633435 -656.75282071 456.60745782 -658.1875 455.375 C-658.93644531 454.84519531 -659.68539062 454.31539062 -660.45703125 453.76953125 C-661.31361328 453.07923828 -661.31361328 453.07923828 -662.1875 452.375 C-662.1875 451.715 -662.1875 451.055 -662.1875 450.375 C-663.1775 450.045 -664.1675 449.715 -665.1875 449.375 C-680.07265027 432.42010503 -687.83141243 412.02335925 -687.5625 389.5 C-687.55307373 388.27200684 -687.54364746 387.04401367 -687.53393555 385.77880859 C-687.38730098 376.96087196 -686.72186727 368.86410012 -684.1875 360.375 C-683.87039063 359.2509375 -683.55328125 358.126875 -683.2265625 356.96875 C-678.16988775 341.04560398 -669.05573124 327.94622031 -657.1875 316.375 C-656.37667969 315.55515625 -655.56585937 314.7353125 -654.73046875 313.890625 C-631.23055216 291.2870568 -597.30602078 283.87741023 -565.72265625 284.20703125 C-562.1875 284.375 -562.1875 284.375 -560.1875 285.375 C-560.1875 287.355 -560.1875 289.335 -560.1875 291.375 C-560.84121582 291.39481934 -561.49493164 291.41463867 -562.16845703 291.43505859 C-597.81385547 292.56954376 -629.78630648 299.1951207 -655.29296875 326.06640625 C-671.79534331 344.3256456 -679.87548847 368.2695818 -679.4375 392.7421875 C-678.3041169 409.21166067 -673.42190128 423.90880757 -664.078125 437.51171875 C-662.1875 440.375 -662.1875 440.375 -661.1875 443.375 C-660.5275 443.375 -659.8675 443.375 -659.1875 443.375 C-656.5625 445.75 -656.5625 445.75 -654.1875 448.375 C-654.1875 449.035 -654.1875 449.695 -654.1875 450.375 C-653.61902344 450.63796875 -653.05054688 450.9009375 -652.46484375 451.171875 C-650.02513678 452.46077679 -647.95804995 453.97175518 -645.75 455.625 C-613.65643438 478.25990479 -570.35415596 474.42949382 -533.7890625 468.12109375 C-470.63222981 456.74695315 -410.11993001 432.45932722 -353.15283203 403.3671875 C-350.97422687 402.26733019 -348.78333023 401.19486117 -346.58984375 400.125 C-333.49220265 393.71318407 -320.80133745 386.68872688 -308.1875 379.375 C-307.24551758 378.82908203 -306.30353516 378.28316406 -305.33300781 377.72070312 C-279.78391097 362.86637167 -255.00793646 346.8819077 -231.1875 329.375 C-230.38473633 328.78783203 -229.58197266 328.20066406 -228.75488281 327.59570312 C-215.22945551 317.6984985 -201.86528682 307.66090984 -188.91723633 297.01538086 C-187.97400513 296.24206421 -187.97400513 296.24206421 -187.01171875 295.453125 C-186.42646927 294.9645401 -185.84121979 294.4759552 -185.23823547 293.9725647 C-183.1875 292.375 -183.1875 292.375 -181.1289978 291.15232849 C-177.92997684 289.17621788 -175.64911933 287.60810199 -174.30250549 284.01095581 C-173.79861655 281.08980514 -173.53324362 278.22760285 -173.33984375 275.26953125 C-173.23717194 274.17385834 -173.13450012 273.07818542 -173.02871704 271.9493103 C-172.81063981 269.59244884 -172.60847994 267.23407072 -172.42068481 264.87460327 C-171.91909316 258.61990187 -171.29199823 252.37747692 -170.6796875 246.1328125 C-170.4992968 244.24761147 -170.4992968 244.24761147 -170.31526184 242.32432556 C-169.20981599 230.99682611 -167.63820116 219.7840361 -165.75 208.5625 C-165.53014435 207.25335129 -165.53014435 207.25335129 -165.30584717 205.91775513 C-156.45219517 153.70112328 -144.77636815 99.69327961 -120.1875 52.375 C-119.85073242 51.71822266 -119.51396484 51.06144531 -119.16699219 50.38476562 C-105.96632262 24.91668313 -87.30228961 2.16099366 -60.1875 -8.625 C-59.29933594 -8.9859375 -58.41117188 -9.346875 -57.49609375 -9.71875 C-38.34562657 -16.19214736 -16.2942945 -10.91653327 0 0 Z M-78.1875 27.375 C-80.68665698 30.87525456 -82.93004742 34.49035078 -85.125 38.1875 C-85.72199707 39.18305908 -86.31899414 40.17861816 -86.93408203 41.2043457 C-92.69151318 50.96355453 -97.66056889 60.99385941 -102.1875 71.375 C-102.52942383 72.15278809 -102.87134766 72.93057617 -103.22363281 73.73193359 C-128.12948872 131.12210692 -139.33884182 195.5414004 -146.1875 257.375 C-142.43815167 255.60157174 -139.4939721 253.26354886 -136.375 250.5625 C-135.81167969 250.07966553 -135.24835937 249.59683105 -134.66796875 249.09936523 C-133.46104242 248.06332088 -132.25585191 247.02525161 -131.05224609 245.98535156 C-129.19145223 244.37841306 -127.32471564 242.77860874 -125.45703125 241.1796875 C-118.77259138 235.43988234 -112.18278546 229.61726061 -105.75 223.59594727 C-103.05869595 221.08002653 -100.32937881 218.62849832 -97.53491211 216.22729492 C-93.02382334 212.28578498 -88.76911633 208.11826477 -84.53125 203.88671875 C-83.34964294 202.71010429 -83.34964294 202.71010429 -82.14416504 201.50971985 C-80.49584773 199.86642939 -78.84884994 198.2218144 -77.203125 196.57592773 C-74.67207111 194.04708458 -72.13309458 191.52637407 -69.59375 189.00585938 C-67.98909533 187.40413458 -66.38491133 185.80193809 -64.78125 184.19921875 C-63.63771057 183.0664576 -63.63771057 183.0664576 -62.47106934 181.91081238 C-61.42868103 180.86380913 -61.42868103 180.86380913 -60.36523438 179.7956543 C-59.74982788 179.18167282 -59.13442139 178.56769135 -58.50036621 177.93510437 C-56.97287475 176.45979089 -56.97287475 176.45979089 -57.1875 174.375 C-56.5275 174.375 -55.8675 174.375 -55.1875 174.375 C-53.78448563 173.06613189 -53.78448563 173.06613189 -52.3125 171.25 C-51.69117188 170.5178125 -51.06984375 169.785625 -50.4296875 169.03125 C-49.68976563 168.1546875 -48.94984375 167.278125 -48.1875 166.375 C-47.27490518 165.32164332 -46.36074634 164.26964033 -45.4453125 163.21875 C-35.3948343 151.6526577 -25.8942421 139.81104395 -17.34082031 127.08300781 C-16.11179793 125.26288915 -14.86515378 123.45561197 -13.6171875 121.6484375 C-8.4761142 114.14884537 -4.01558621 106.64542121 -0.1875 98.375 C0.31394531 97.36179687 0.81539062 96.34859375 1.33203125 95.3046875 C11.80312993 73.72627148 16.66365358 49.9049919 9.8125 26.375 C5.03629612 14.2442875 -1.46961014 6.2720395 -13.1875 0.375 C-40.4753364 -9.3632821 -61.51984395 7.23734814 -78.1875 27.375 Z M363.8125 1.375 C362.97203125 1.69082031 362.1315625 2.00664062 361.265625 2.33203125 C341.42253818 10.98906422 327.57507321 31.51535397 316.8125 49.375 C316.25941162 50.28918701 315.70632324 51.20337402 315.13647461 52.14526367 C311.01393988 59.07254299 307.35956509 66.11168665 304 73.4375 C303.48791992 74.55382812 302.97583984 75.67015625 302.44824219 76.8203125 C279.56534747 127.5452432 268.02284246 182.7235123 261.5 237.75 C261.41273651 238.47814911 261.32547302 239.20629822 261.23556519 239.95651245 C260.38698025 247.10391612 259.56103909 254.16645379 259.8125 261.375 C263.48364981 259.28283936 266.69238843 256.95264516 269.9375 254.25 C270.89914062 253.45207031 271.86078125 252.65414062 272.8515625 251.83203125 C274.31722656 250.61580078 274.31722656 250.61580078 275.8125 249.375 C277.64563258 247.89558455 279.47896245 246.41641352 281.3125 244.9375 C286.10873151 241.01704257 290.69803279 236.9064826 295.2578125 232.71484375 C297.43947815 230.71665152 299.64261309 228.75351111 301.875 226.8125 C306.5726578 222.72344564 311.19881976 218.55842312 315.8125 214.375 C316.72128906 213.5603125 317.63007812 212.745625 318.56640625 211.90625 C325.59827591 205.55182669 332.376211 198.94142881 339.09997559 192.26376343 C340.11588972 191.25535094 341.13338659 190.24853045 342.15246582 189.24331665 C343.5925103 187.82109218 345.02493537 186.39116543 346.45703125 184.9609375 C347.29596924 184.1261084 348.13490723 183.2912793 348.99926758 182.43115234 C351.03297083 180.58190168 351.03297083 180.58190168 350.8125 178.375 C351.4725 178.375 352.1325 178.375 352.8125 178.375 C354.51734466 176.68977271 354.51734466 176.68977271 356.25 174.5625 C359.65667609 170.52305038 359.65667609 170.52305038 361.53515625 168.73828125 C363.04041081 167.44312114 363.04041081 167.44312114 362.8125 165.375 C363.4725 165.375 364.1325 165.375 364.8125 165.375 C366.25062673 163.80559199 367.6128005 162.16625965 368.9375 160.5 C369.75089844 159.48164063 370.56429688 158.46328125 371.40234375 157.4140625 C372.19769531 156.41117188 372.99304687 155.40828125 373.8125 154.375 C374.43253906 153.61960937 375.05257813 152.86421875 375.69140625 152.0859375 C385.93710359 139.56095976 395.85333061 126.48517048 403.8125 112.375 C404.3995874 111.34004395 404.3995874 111.34004395 404.99853516 110.28417969 C418.7794948 85.77175434 429.64487387 56.75057162 421.8125 28.375 C419.53253265 20.92787046 415.92069746 14.28843056 410.8125 8.375 C410.1525 8.375 409.4925 8.375 408.8125 8.375 C408.8125 7.715 408.8125 7.055 408.8125 6.375 C400.64575784 -0.6780955 390.80400288 -3.38270465 380.109375 -3.01171875 C374.38060992 -2.33974275 369.17822643 -0.69562007 363.8125 1.375 Z M465.5625 161.5 C458.28131111 170.92271504 458.83847425 182.44095856 460.07324219 193.76660156 C463.07865154 216.21240651 471.62152396 237.81426068 480.8125 258.375 C481.4725 258.375 482.1325 258.375 482.8125 258.375 C498.50181454 211.9880902 498.50181454 211.9880902 492.32421875 164.984375 C489.71194943 160.47534164 486.82159172 157.40770603 481.83203125 155.6953125 C475.27267682 154.45195325 470.10030277 156.69395273 465.5625 161.5 Z M145.3671875 260.7734375 C140.98764418 265.70355198 140.43498941 269.98189659 140.546875 276.359375 C142.0787881 293.75109431 151.11325683 309.76538525 162.8125 322.375 C163.63234375 323.28636719 164.4521875 324.19773437 165.296875 325.13671875 C172.29859603 332.56310037 180.09259799 338.12712164 188.8125 343.375 C189.1425 343.375 189.4725 343.375 189.8125 343.375 C190.49887997 319.18206004 190.49887997 319.18206004 186.8125 295.375 C186.5340625 294.23804688 186.255625 293.10109375 185.96875 291.9296875 C182.24370939 278.34613422 175.75852542 266.21730232 163.75 258.375 C156.73517969 255.98697606 151.1587177 255.16974071 145.3671875 260.7734375 Z M-7 260.6875 C-11.74769981 267.43423131 -10.91560123 276.18611379 -9.5703125 283.92578125 C-5.61883291 300.48352981 2.21657504 313.09190912 13.8125 325.375 C14.66908203 326.30892578 14.66908203 326.30892578 15.54296875 327.26171875 C16.78169966 328.59477438 16.78169966 328.59477438 18.8125 328.375 C18.8125 329.035 18.8125 329.695 18.8125 330.375 C20.98584395 332.13749263 23.15415557 333.76701096 25.4375 335.375 C26.36369141 336.05175781 26.36369141 336.05175781 27.30859375 336.7421875 C28.22705078 337.39574219 28.22705078 337.39574219 29.1640625 338.0625 C29.71916504 338.45824219 30.27426758 338.85398437 30.84619141 339.26171875 C33.39160045 340.70287411 36.02458811 341.51461218 38.8125 342.375 C39.46069772 300.98708017 39.46069772 300.98708017 20.09375 265.6015625 C16.38218129 261.97896976 13.13297076 259.15544947 8.125 257.625 C7.35800781 257.38265625 6.59101562 257.1403125 5.80078125 256.890625 C1.07301583 255.66456403 -3.16223995 257.90843238 -7 260.6875 Z M116.8125 293.375 C101.72190731 320.32248695 103.31286994 358.23560181 110.8125 387.375 C115.49733399 402.92886229 121.79408602 418.78453704 135.625 428.3125 C140.95257532 430.08835844 145.91717638 430.63841394 151.17578125 428.34375 C156.97124857 424.74035063 161.78149988 419.86682578 165.8125 414.375 C165.8125 413.715 165.8125 413.055 165.8125 412.375 C166.4725 412.375 167.1325 412.375 167.8125 412.375 C175.15899295 398.90322151 181.35919483 385.77962798 185.625 371 C185.84454346 370.25032959 186.06408691 369.50065918 186.2902832 368.72827148 C187.56022769 364.12722412 188.03283477 360.1468217 187.8125 355.375 C186.65363281 354.94832031 185.49476563 354.52164063 184.30078125 354.08203125 C158.14861349 344.26418424 135.00174402 330.43612097 122.33984375 304.33984375 C121.49230339 302.46438271 120.66186457 300.58101646 119.85546875 298.6875 C118.79996872 296.17900454 118.79996872 296.17900454 116.8125 293.375 Z M-35.1875 294.375 C-48.70778991 327.02676734 -49.48310122 368.75352418 -36.25 401.8125 C-31.50683576 412.52987874 -26.08404499 421.57740348 -16.3125 428.375 C-10.49095936 430.237893 -4.71826176 430.38001259 0.9375 427.875 C21.479161 416.01291407 30.29287149 386.09917099 36.11328125 364.75 C36.78381313 361.51346624 36.94803171 358.66791866 36.8125 355.375 C32.90742521 353.89600157 29.00825857 352.44222199 25.05859375 351.0859375 C3.45500055 343.61566754 -15.96151435 329.75522287 -27.1875 309.375 C-29.52949491 304.50167693 -31.42755817 299.48312386 -33.1875 294.375 C-33.8475 294.375 -34.5075 294.375 -35.1875 294.375 Z M510.16796875 416.9609375 C509.60618927 417.33353195 509.04440979 417.7061264 508.46560669 418.0900116 C506.63981338 419.30424453 504.81940909 420.52622458 503 421.75 C502.38401947 422.16305389 501.76803894 422.57610779 501.13339233 423.00167847 C477.16412047 438.08647438 477.16412047 438.08647438 462.19921875 461.28125 C460.60753032 469.89887623 461.23786762 478.96560055 466.13671875 486.37890625 C469.98474902 491.21671858 474.58505161 494.43144721 480.8125 495.375 C487.72045395 495.90638107 492.91316434 494.59605071 498.3671875 490.41796875 C510.33524836 479.99474661 517.75219828 466.28981164 519.8125 450.375 C520.63235807 437.90874735 520.46312879 425.60632504 517.8125 413.375 C514.65043263 413.375 512.7725615 415.22831622 510.16796875 416.9609375 Z " fill="#FFFFFF" transform="translate(879.1875,336.625)"/>
<path d="M0 0 C3.8125 0.625 3.8125 0.625 5.29296875 2.0703125 C6.95536394 4.51966788 8.3846545 7.03041963 9.8125 9.625 C10.60253384 11.01264964 11.39432945 12.39929714 12.1875 13.78515625 C14.42619207 17.71532398 16.62624347 21.66544652 18.8125 25.625 C21.2309589 22.53963274 23.22707316 19.33054645 25.1875 15.9375 C25.79464844 14.88691406 26.40179687 13.83632813 27.02734375 12.75390625 C29.32336263 8.72959307 31.58597521 4.68815123 33.8125 0.625 C36.14544775 0.58258277 38.47952567 0.58407063 40.8125 0.625 C42.70873202 2.52123202 41.94147626 5.28870359 41.95144653 7.8112793 C41.9494223 8.67793213 41.94739807 9.54458496 41.9453125 10.4375 C41.94626923 11.32155518 41.94722595 12.20561035 41.94821167 13.11645508 C41.94889351 14.98942129 41.94703893 16.86238986 41.94287109 18.73535156 C41.93752289 21.61268388 41.94281593 24.48986008 41.94921875 27.3671875 C41.94855797 29.18229201 41.94727681 30.99739643 41.9453125 32.8125 C41.94733673 33.67915283 41.94936096 34.54580566 41.95144653 35.4387207 C41.92745009 41.51004991 41.92745009 41.51004991 40.8125 42.625 C37.8125 42.75 37.8125 42.75 34.8125 42.625 C33.12949331 40.94199331 33.58440923 38.80491273 33.49609375 36.49609375 C33.45419922 35.46162109 33.41230469 34.42714844 33.36914062 33.36132812 C33.32982422 32.27271484 33.29050781 31.18410156 33.25 30.0625 C33.20681641 28.97001953 33.16363281 27.87753906 33.11914062 26.75195312 C33.01267932 24.04310436 32.91066484 21.33416008 32.8125 18.625 C32.55557373 19.11379639 32.29864746 19.60259277 32.03393555 20.10620117 C30.85743943 22.34241762 29.67873884 24.57746497 28.5 26.8125 C28.09587891 27.58142578 27.69175781 28.35035156 27.27539062 29.14257812 C25.2197202 33.03665299 23.13211525 36.87908411 20.8125 40.625 C16.24653313 40.15382854 16.24653313 40.15382854 14.3269043 37.81494141 C13.93414307 37.04327637 13.54138184 36.27161133 13.13671875 35.4765625 C12.70166016 34.63609375 12.26660156 33.795625 11.81835938 32.9296875 C11.16577148 31.60324219 11.16577148 31.60324219 10.5 30.25 C9.8184082 28.93515625 9.8184082 28.93515625 9.12304688 27.59375 C5.8125 21.0821781 5.8125 21.0821781 5.8125 17.625 C5.1525 17.625 4.4925 17.625 3.8125 17.625 C3.86579468 18.70769165 3.86579468 18.70769165 3.92016602 19.81225586 C4.077142 23.06210424 4.22617651 26.31226853 4.375 29.5625 C4.43107422 30.69880859 4.48714844 31.83511719 4.54492188 33.00585938 C4.59326172 34.08544922 4.64160156 35.16503906 4.69140625 36.27734375 C4.7385376 37.27757568 4.78566895 38.27780762 4.83422852 39.30834961 C4.8125 41.625 4.8125 41.625 3.8125 42.625 C0.3125 42.75 0.3125 42.75 -3.1875 42.625 C-5.08373202 40.72876798 -4.31647626 37.96129641 -4.32644653 35.4387207 C-4.3244223 34.57206787 -4.32239807 33.70541504 -4.3203125 32.8125 C-4.32126923 31.92844482 -4.32222595 31.04438965 -4.32321167 30.13354492 C-4.32389351 28.26057871 -4.32203893 26.38761014 -4.31787109 24.51464844 C-4.31252289 21.63731612 -4.31781593 18.76013992 -4.32421875 15.8828125 C-4.32355797 14.06770799 -4.32227681 12.25260357 -4.3203125 10.4375 C-4.32233673 9.57084717 -4.32436096 8.70419434 -4.32644653 7.8112793 C-4.29890466 0.84292248 -4.29890466 0.84292248 0 0 Z " fill="#FFFFFF" transform="translate(1248.1875,812.375)"/>
<path d="M0 0 C3.99974981 -0.11710979 7.99905281 -0.18755489 12 -0.25 C13.12535156 -0.28351562 14.25070312 -0.31703125 15.41015625 -0.3515625 C22.44373791 -0.43382661 27.06724197 0.11012563 33 4 C35.45193779 7.67790669 35.71511798 10.72592275 35 15 C33 18 33 18 31 20 C31.804375 20.78375 32.60875 21.5675 33.4375 22.375 C36.17074942 25.17491404 36.88129054 25.95535679 37.3125 29.75 C36.91753151 33.85767229 35.5942368 35.82926614 33 39 C29.9802852 40.89246212 27.54081537 41.28536167 24.0078125 41.4140625 C23.05519531 41.45273437 22.10257813 41.49140625 21.12109375 41.53125 C20.13238281 41.5621875 19.14367187 41.593125 18.125 41.625 C16.65353516 41.68300781 16.65353516 41.68300781 15.15234375 41.7421875 C4.73812134 42.13570738 4.73812134 42.13570738 1 42 C-2.021672 38.978328 -0.94560954 31.13673943 -1 27 C-0.84982255 17.99466903 -0.42924826 8.99571967 0 0 Z M7 7 C7 10.3 7 13.6 7 17 C9.60423592 17.02697137 12.20819244 17.04682489 14.8125 17.0625 C15.55048828 17.07087891 16.28847656 17.07925781 17.04882812 17.08789062 C20.29922068 17.10259828 22.89404895 17.03531702 26 16 C26.67673447 12.59679066 26.67673447 12.59679066 27 9 C25.24490235 6.8334403 25.24490235 6.8334403 23.12060547 6.77294922 C22.00516357 6.78865967 22.00516357 6.78865967 20.8671875 6.8046875 C20.06152344 6.81113281 19.25585938 6.81757812 18.42578125 6.82421875 C17.16314453 6.84935547 17.16314453 6.84935547 15.875 6.875 C15.02550781 6.88402344 14.17601562 6.89304687 13.30078125 6.90234375 C11.20040116 6.92594353 9.10016556 6.96181517 7 7 Z M7 23 C7 26.96 7 30.92 7 35 C9.56278699 35.05420701 12.12441483 35.09377007 14.6875 35.125 C15.40873047 35.14175781 16.12996094 35.15851562 16.87304688 35.17578125 C21.04369829 35.21386939 24.27271389 34.92422036 28 33 C29.23836166 31.95657219 29.23836166 31.95657219 29.375 29.6875 C29.23832743 26.85147961 29.23832743 26.85147961 27.02734375 24.84765625 C22.94821519 22.35807198 19.85737889 22.54645121 15.1875 22.75 C14.39923828 22.76804687 13.61097656 22.78609375 12.79882812 22.8046875 C10.86535739 22.85155952 8.93251715 22.9232959 7 23 Z " fill="#FFFFFF" transform="translate(729,813)"/>
<path d="M0 0 C2.8190918 -0.16943359 2.8190918 -0.16943359 6 0 C8.23424435 2.09253114 9.96102164 3.9840566 11.8125 6.375 C12.85556769 7.65983185 13.89984975 8.94367874 14.9453125 10.2265625 C15.45739258 10.8649707 15.96947266 11.50337891 16.49707031 12.16113281 C19.31046233 15.60337918 22.34816489 18.83656143 25.35546875 22.109375 C27 24 27 24 28 26 C28.33 17.42 28.66 8.84 29 0 C31.31 0 33.62 0 36 0 C36.83013804 5.05584567 37.1475448 9.95902214 37.1328125 15.0859375 C37.13376923 15.82832672 37.13472595 16.57071594 37.13571167 17.33560181 C37.13638747 18.89023932 37.13457542 20.44487975 37.13037109 21.99951172 C37.12496821 24.38906056 37.13035968 26.77842533 37.13671875 29.16796875 C37.13605876 30.68229208 37.13477923 32.1966153 37.1328125 33.7109375 C37.13483673 34.42752533 37.13686096 35.14411316 37.13894653 35.88241577 C37.1149828 40.8850172 37.1149828 40.8850172 36 42 C33.04108735 42.18115792 31.66636512 42.14643325 29 41 C25.91304922 37.99916587 23.53656015 34.46705709 21 31 C18.85658559 28.27289098 16.67768275 25.57477602 14.5 22.875 C13.44732413 21.56037008 12.39519343 20.24530334 11.34375 18.9296875 C10.5703125 17.96289062 9.796875 16.99609375 9 16 C7.9898612 22.27969618 7.66448202 28.50662657 7.39453125 34.85546875 C7.10402602 40.89597398 7.10402602 40.89597398 6 42 C3.5 42.125 3.5 42.125 1 42 C0 41 0 41 -0.11352539 37.12280273 C-0.11336621 35.39305833 -0.10766849 33.66330919 -0.09765625 31.93359375 C-0.0962413 31.02497086 -0.09482635 30.11634796 -0.09336853 29.18019104 C-0.08775193 26.26592779 -0.07519665 23.35174019 -0.0625 20.4375 C-0.05748714 18.46679798 -0.05292386 16.49609476 -0.04882812 14.52539062 C-0.03777711 9.68356441 -0.02050138 4.84179505 0 0 Z " fill="#FFFFFF" transform="translate(1057,813)"/>
<path d="M0 0 C3.6875 0.4375 3.6875 0.4375 5.57421875 2.69140625 C8.67250191 7.7697106 10.85375457 13.35649571 13.1875 18.8125 C14.13349114 21.00864292 15.08136851 23.20397444 16.03125 25.3984375 C16.47855469 26.43581055 16.92585937 27.47318359 17.38671875 28.54199219 C18.53604316 31.1003607 19.77668852 33.56448049 21.09375 36.0390625 C22.6875 39.4375 22.6875 39.4375 21.6875 42.4375 C15.9375 42.5625 15.9375 42.5625 13.6875 41.4375 C12.6975 38.4675 11.7075 35.4975 10.6875 32.4375 C4.0875 32.4375 -2.5125 32.4375 -9.3125 32.4375 C-9.9725 34.4175 -10.6325 36.3975 -11.3125 38.4375 C-12.5625 40.8125 -12.5625 40.8125 -14.3125 42.4375 C-17.5 42.6875 -17.5 42.6875 -20.3125 42.4375 C-19.69927097 37.28960366 -18.08472634 33.02871965 -16.0625 28.3125 C-15.74893555 27.56766357 -15.43537109 26.82282715 -15.11230469 26.05541992 C-14.47961451 24.5530231 -13.84455748 23.05162061 -13.20703125 21.55126953 C-11.9694366 18.62684418 -10.76842358 15.68760043 -9.5625 12.75 C-4.48572251 0.59245392 -4.48572251 0.59245392 0 0 Z M-0.3125 10.4375 C-0.83650391 11.81035156 -0.83650391 11.81035156 -1.37109375 13.2109375 C-1.82613281 14.39945313 -2.28117188 15.58796875 -2.75 16.8125 C-3.20246094 17.99585938 -3.65492188 19.17921875 -4.12109375 20.3984375 C-5.3125 23.4375 -5.3125 23.4375 -6.3125 25.4375 C-2.0225 25.4375 2.2675 25.4375 6.6875 25.4375 C5.79575333 21.87051331 4.66446469 19.0032701 3.125 15.6875 C2.66996094 14.70265625 2.21492187 13.7178125 1.74609375 12.703125 C1.39675781 11.95546875 1.04742188 11.2078125 0.6875 10.4375 C0.3575 10.4375 0.0275 10.4375 -0.3125 10.4375 Z " fill="#FFFFFF" transform="translate(982.3125,812.5625)"/>
<path d="M0 0 C2.31 0 4.62 0 7 0 C7.01458252 0.75619629 7.02916504 1.51239258 7.04418945 2.29150391 C7.11892 5.73650277 7.21549928 9.18055921 7.3125 12.625 C7.33505859 13.81480469 7.35761719 15.00460937 7.38085938 16.23046875 C7.51358337 24.57565575 7.51358337 24.57565575 11 32 C15.02702645 34.6846843 18.2713959 34.5643542 23 34 C26.28931514 32.27310955 26.8140267 31.5579199 28 28 C28.15070797 25.86338742 28.2485966 23.72287876 28.31640625 21.58203125 C28.35830078 20.32841797 28.40019531 19.07480469 28.44335938 17.78320312 C28.48267578 16.47287109 28.52199219 15.16253906 28.5625 13.8125 C28.60570992 12.47720022 28.649325 11.14191348 28.69335938 9.80664062 C28.79956502 6.53786703 28.90160997 3.26901667 29 0 C31.33294775 -0.04241723 33.66702567 -0.04092937 36 0 C38.73492187 2.73492187 37.23535108 10.94445772 37.25 14.625 C37.270625 15.89730469 37.29125 17.16960938 37.3125 18.48046875 C37.3619902 30.34574376 37.3619902 30.34574376 34 36 C29.32722494 40.54980729 24.6591281 42.29330907 18.1875 42.4375 C12.22647864 42.34206493 8.4649905 40.91528061 4 37 C-0.18040721 32.5498891 -0.12363355 28.18845035 -0.09765625 22.265625 C-0.09443359 20.97011719 -0.09121094 19.67460938 -0.08789062 18.33984375 C-0.07953598 16.97656183 -0.07107104 15.61328058 -0.0625 14.25 C-0.05748168 12.87109535 -0.05291935 11.49218896 -0.04882812 10.11328125 C-0.03704093 6.74214341 -0.02058635 3.37109372 0 0 Z " fill="#FFFFFF" transform="translate(1151,813)"/>
<path d="M0 0 C4.17650715 -0.95711622 4.17650715 -0.95711622 7 0 C11.97469345 5.20543062 15.6236103 11.66926931 19 18 C19.33 17.34 19.66 16.68 20 16 C20.66 16 21.32 16 22 16 C22.0928125 15.45730469 22.185625 14.91460938 22.28125 14.35546875 C23.21323453 11.30119336 24.75887307 8.98484441 26.5 6.3125 C27.1290625 5.33925781 27.758125 4.36601563 28.40625 3.36328125 C30 1 30 1 31 0 C33.33297433 -0.04092937 35.66705225 -0.04241723 38 0 C38 3.66386243 37.08969148 4.6086362 34.97265625 7.54296875 C26.99562393 19.01027275 22.11962049 26.85523584 23 41 C22 42 22 42 19 42.125 C16 42 16 42 15 41 C14.91921359 38.87561661 14.86090859 36.7503677 14.8125 34.625 C14.29874773 27.03373506 12.14278773 22.26947548 8 16 C6.76783034 14.1178162 5.53825685 12.23402349 4.3125 10.34765625 C3.48888662 9.08907205 2.65444686 7.83749663 1.80859375 6.59375 C0.81303544 5.10041254 -0.10158942 3.55372183 -1 2 C-0.67 1.34 -0.34 0.68 0 0 Z " fill="#FFFFFF" transform="translate(814,813)"/>
</svg>
